PathFileType	4	(X/Y/Z)	/Users/itak/Documents/Research/Walk-IL/dataset/trc/00390_00012.trc
DataRate	CameraRate	NumFrames	NumMarkers	Units	OrigDataRate	OrigDataStartFrame	OrigNumFrames
100.000000	100.000000	4	55	mm	100.000000	0	589
Frame#	Time	LPSI			L3			STRN			T10			C7			CLAV			RBAK			LBAK			LSHO			LUPA			LAEL			LAOL			LWTS			LWPS			LFRA			LIFD			LHPS			LHTS			RSHO			RUPA			RAEL			RAOL			RWTS			RWPS			RFRA			RIFD			RHTS			RHPS			RBHD			LFHD			RFHD			LBHD			LHIP			RHIP			RASI			LASI			LKNE			LTHI			LANK			LTIP			LTOE			LMT5			LHEE			RKNE			RTHI			RANK			RTIP			RTOE			RMT1			RMT5			RHEE			RPSI			LMT1			*53			*54			
		X1	Y1	Z1	X2	Y2	Z2	X3	Y3	Z3	X4	Y4	Z4	X5	Y5	Z5	X6	Y6	Z6	X7	Y7	Z7	X8	Y8	Z8	X9	Y9	Z9	X10	Y10	Z10	X11	Y11	Z11	X12	Y12	Z12	X13	Y13	Z13	X14	Y14	Z14	X15	Y15	Z15	X16	Y16	Z16	X17	Y17	Z17	X18	Y18	Z18	X19	Y19	Z19	X20	Y20	Z20	X21	Y21	Z21	X22	Y22	Z22	X23	Y23	Z23	X24	Y24	Z24	X25	Y25	Z25	X26	Y26	Z26	X27	Y27	Z27	X28	Y28	Z28	X29	Y29	Z29	X30	Y30	Z30	X31	Y31	Z31	X32	Y32	Z32	X33	Y33	Z33	X34	Y34	Z34	X35	Y35	Z35	X36	Y36	Z36	X37	Y37	Z37	X38	Y38	Z38	X39	Y39	Z39	X40	Y40	Z40	X41	Y41	Z41	X42	Y42	Z42	X43	Y43	Z43	X44	Y44	Z44	X45	Y45	Z45	X46	Y46	Z46	X47	Y47	Z47	X48	Y48	Z48	X49	Y49	Z49	X50	Y50	Z50	X51	Y51	Z51	X52	Y52	Z52	X53	Y53	Z53	X54	Y54	Z54	X55	Y55	Z55	

1	0	927.6507568359375	974.4186401367188	-130.6147155761719	936.5673217773438	1049.952514648438	-63.49776077270508	1174.587890625	1208.371948242188	-68.42747497558594	932.7135009765625	1149.843505859375	-69.93218994140625	959.8468017578125	1401.186401367188	-83.27745056152344	1118.849975585938	1326.763427734375	-72.32356262207031	920.4628295898438	1254.947387695312	-12.54951000213623	949.2886352539062	1361.682495117188	-186.8330841064453	1038.474853515625	1377.3359375	-235.4872436523438	1024.00830078125	1257.4462890625	-302.8522644042969	1061.764038085938	1060.615356445312	-315.8735046386719	998.97314453125	1038.910400390625	-260.5648193359375	1157.593505859375	857.0261840820312	-238.1297912597656	1128.270629882812	835.4364013671875	-311.9918823242188	1090.1005859375	957.8178100585938	-316.7775573730469	1168.635620117188	676.021240234375	-230.3203582763672	1145.645263671875	752.7979125976562	-296.6086730957031	1186.792602539062	761.5598754882812	-247.5203399658203	1018.900451660156	1382.808715820312	79.48329925537109	1008.839904785156	1316.644897460938	138.9932861328125	1034.596435546875	1054.643432617188	176.4925689697266	1007.421264648438	1041.727661132812	88.61806488037109	1170.366821289062	846.2980346679688	132.0266723632812	1135.451049804688	832.7262573242188	196.0418548583984	1065.624145507812	990.3585815429688	188.6515655517578	1179.5615234375	673.9598999023438	134.3868560791016	1196.764282226562	743.019287109375	149.5871124267578	1143.073608398438	743.1353149414062	193.8281097412109	976.1582641601562	1588.302612304688	-18.31919097900391	1152.868286132812	1603.582397460938	-106.3903732299805	1105.580200195312	1609.41455078125	7.454444408416748	1021.746520996094	1577.264526367188	-171.3797912597656	1011.299438476562	959.3283081054688	-245.9802703857422	1026.6953125	956.9038696289062	112.0574111938477	1156.200439453125	963.97119140625	53.09619522094727	1129.6962890625	956.6595458984375	-209.7829132080078	1033.291137695312	465.8055114746094	-227.7066802978516	1033.954956054688	608.452392578125	-238.1396026611328	934.1090698242188	30.49016380310059	-181.1907196044922	976.667236328125	237.7142944335938	-216.8178253173828	1149.578491210938	34.96091461181641	-122.6089096069336	1061.861572265625	31.44338226318359	-195.0956115722656	897.6964721679688	29.18756675720215	-123.2433547973633	1041.118286132812	469.241455078125	97.12201690673828	1094.841430664062	730.2501831054688	112.4821548461914	980.1527709960938	46.92662048339844	68.6748046875	1043.417724609375	342.8792114257812	82.70505523681641	1157.30859375	28.49580001831055	-4.856565952301025	1079.712280273438	34.40866088867188	-29.30153846740723	1066.1162109375	38.20884323120117	68.41380310058594	905.8765869140625	32.12276458740234	19.9932861328125	937.6906127929688	982.2904663085938	-0.1983477175235748	1070.709716796875	36.27526092529297	-91.45146179199219	nan	nan	nan	nan	nan	nan	
2	0.01	927.6635131835938	974.4286499023438	-130.5906066894531	936.6221923828125	1049.942993164062	-63.43460083007812	1174.5859375	1208.369140625	-68.39847564697266	932.74755859375	1149.847534179688	-69.89765167236328	959.8336181640625	1401.167602539062	-83.24200439453125	1118.863037109375	1326.771118164062	-72.27747344970703	920.4497680664062	1254.942749023438	-12.52185821533203	949.2803344726562	1361.6630859375	-186.7888488769531	1038.471435546875	1377.341064453125	-235.4534606933594	1023.984497070312	1257.441040039062	-302.8101501464844	1061.731689453125	1060.617919921875	-315.8461608886719	998.9517822265625	1038.906494140625	-260.5029296875	1157.6318359375	857.0787963867188	-238.1781158447266	1128.255737304688	835.4324340820312	-311.9971008300781	1090.072509765625	957.8203735351562	-316.7478332519531	1168.731689453125	676.068603515625	-230.3840789794922	1145.642822265625	752.8030395507812	-296.62255859375	1186.833374023438	761.5848388671875	-247.5804595947266	1018.844604492188	1382.800415039062	79.49827575683594	1008.829162597656	1316.633911132812	139.0230255126953	1034.567260742188	1054.626708984375	176.5299835205078	1007.515869140625	1041.69287109375	88.60062408447266	1170.288452148438	846.2650756835938	132.0800323486328	1135.395629882812	832.7115478515625	196.0924377441406	1065.524780273438	990.3419799804688	188.6475067138672	1179.393188476562	673.9107055664062	134.3727569580078	1196.704467773438	742.9398193359375	149.6287841796875	1142.83203125	743.1296997070312	193.7842407226562	976.1239013671875	1588.3037109375	-18.41717910766602	1152.939575195312	1603.577392578125	-106.1949005126953	1105.606323242188	1609.52490234375	7.659774303436279	1021.861206054688	1577.200439453125	-171.4106750488281	1011.286254882812	959.3305053710938	-245.9629058837891	1026.7177734375	956.8937377929688	112.0675506591797	1156.225830078125	963.9624633789062	53.12981414794922	1129.713623046875	956.6924438476562	-209.8000183105469	1033.282104492188	465.8082275390625	-227.7020568847656	1033.956787109375	608.4629516601562	-238.1259002685547	934.1092529296875	30.48971748352051	-181.1879425048828	976.6699829101562	237.7180938720703	-216.8092498779297	1149.535766601562	35.05629348754883	-122.5312881469727	1061.857788085938	31.44626235961914	-195.0944671630859	897.6961669921875	29.17375183105469	-123.2578887939453	1041.137817382812	469.2528076171875	97.15766143798828	1094.817260742188	730.2103271484375	112.5286102294922	980.2493896484375	46.90010070800781	68.69625091552734	1043.450073242188	342.9158935546875	82.73952484130859	1157.302124023438	28.48143005371094	-4.837005138397217	1079.70849609375	34.41217422485352	-29.29913330078125	1066.114990234375	38.21466827392578	68.41390228271484	905.9149169921875	32.10913467407227	20.02268218994141	937.722900390625	982.2998046875	-0.1583684235811234	1070.707763671875	36.28173446655273	-91.44668579101562	nan	nan	nan	nan	nan	nan	
3	0.02	927.6777954101562	974.438232421875	-130.560791015625	936.6796875	1049.928588867188	-63.36116790771484	1174.584350585938	1208.36767578125	-68.36033630371094	932.7872314453125	1149.849243164062	-69.85386657714844	959.8121948242188	1401.147338867188	-83.20259094238281	1118.878173828125	1326.779174804688	-72.22115325927734	920.433837890625	1254.935913085938	-12.48828792572021	949.2709350585938	1361.643676757812	-186.7360992431641	1038.466186523438	1377.345947265625	-235.4123077392578	1023.955017089844	1257.434326171875	-302.7598266601562	1061.690063476562	1060.620483398438	-315.8124389648438	998.9306030273438	1038.900756835938	-260.42822265625	1157.671997070312	857.1292724609375	-238.2317810058594	1128.236694335938	835.428955078125	-312.0032653808594	1090.035888671875	957.8223266601562	-316.7165832519531	1168.84912109375	676.1307373046875	-230.46240234375	1145.638305664062	752.8072509765625	-296.6373291015625	1186.87255859375	761.6007690429688	-247.6407928466797	1018.771850585938	1382.7890625	79.51652526855469	1008.815612792969	1316.621337890625	139.0619812011719	1034.536987304688	1054.605102539062	176.5766754150391	1007.594360351562	1041.656372070312	88.58450317382812	1170.19287109375	846.2208862304688	132.1443634033203	1135.320434570312	832.6882934570312	196.1532440185547	1065.41259765625	990.319580078125	188.6493377685547	1179.192260742188	673.848876953125	134.3596649169922	1196.630249023438	742.8388671875	149.6836090087891	1142.566284179688	743.1177368164062	193.7495727539062	976.0538330078125	1588.298583984375	-18.53072357177734	1153.041625976562	1603.571411132812	-105.9583053588867	1105.621337890625	1609.66650390625	7.918636798858643	1022.005798339844	1577.128051757812	-171.4519805908203	1011.279296875	959.3366088867188	-245.9338836669922	1026.745239257812	956.884521484375	112.0820617675781	1156.249389648438	963.9508056640625	53.16750335693359	1129.736572265625	956.733154296875	-209.8198852539062	1033.271118164062	465.8111572265625	-227.6957244873047	1033.959228515625	608.4743041992188	-238.1072540283203	934.1096801757812	30.4887580871582	-181.1840209960938	976.6719360351562	237.7225036621094	-216.7981414794922	1149.496459960938	35.14319610595703	-122.4602203369141	1061.85302734375	31.44968795776367	-195.0930480957031	897.6949462890625	29.15975570678711	-123.2703552246094	1041.175903320312	469.2735900878906	97.21108245849609	1094.796264648438	730.1705932617188	112.580436706543	980.3478393554688	46.87356185913086	68.7196044921875	1043.475952148438	342.9556274414062	82.77957916259766	1157.29541015625	28.46705627441406	-4.81725549697876	1079.704711914062	34.41603469848633	-29.29622268676758	1066.11328125	38.2204704284668	68.41443634033203	905.9448852539062	32.0931396484375	20.04955291748047	937.7635498046875	982.3094482421875	-0.1073523908853531	1070.705688476562	36.28794097900391	-91.44221496582031	nan	nan	nan	nan	nan	nan	
4	0.03	927.69287109375	974.44580078125	-130.5263519287109	936.7368774414062	1049.909301757812	-63.28214263916016	1174.583862304688	1208.368408203125	-68.31409454345703	932.8388671875	1149.846801757812	-69.80033111572266	959.781494140625	1401.127685546875	-83.16410827636719	1118.89404296875	1326.786743164062	-72.15787506103516	920.4161987304688	1254.926635742188	-12.45103073120117	949.2611083984375	1361.626708984375	-186.678466796875	1038.45947265625	1377.35009765625	-235.3664245605469	1023.921264648438	1257.42626953125	-302.7042236328125	1061.640869140625	1060.622192382812	-315.7742614746094	998.9117431640625	1038.895141601562	-260.3458251953125	1157.709350585938	857.1708374023438	-238.2864532470703	1128.213989257812	835.4263916015625	-312.0096130371094	1089.992431640625	957.8232421875	-316.687255859375	1168.98193359375	676.2080078125	-230.5525360107422	1145.631958007812	752.8097534179688	-296.6514282226562	1186.904541015625	761.6025390625	-247.6940460205078	1018.684936523438	1382.774536132812	79.53727722167969	1008.799926757812	1316.608032226562	139.1092529296875	1034.509521484375	1054.5791015625	176.6304321289062	1007.637451171875	1041.620361328125	88.57115936279297	1170.0859375	846.1664428710938	132.2154388427734	1135.22705078125	832.6552734375	196.2207183837891	1065.296875	990.2916870117188	188.659912109375	1178.974487304688	673.7781372070312	134.3555145263672	1196.544921875	742.7224731445312	149.7509765625	1142.304565429688	743.0983276367188	193.7349395751953	975.9452514648438	1588.286865234375	-18.65003776550293	1153.1728515625	1603.564819335938	-105.6963500976562	1105.6171875	1609.828247070312	8.212443351745605	1022.174133300781	1577.054443359375	-171.5005340576172	1011.279479980469	959.3447875976562	-245.8926086425781	1026.774291992188	956.8773193359375	112.1015090942383	1156.267456054688	963.9371948242188	53.20690536499023	1129.764038085938	956.7786254882812	-209.840576171875	1033.258911132812	465.8139038085938	-227.6873931884766	1033.962890625	608.4855346679688	-238.0833740234375	934.1102294921875	30.4872875213623	-181.1791534423828	976.6728515625	237.7279205322266	-216.7853088378906	1149.465942382812	35.20883941650391	-122.4054336547852	1061.847900390625	31.4531421661377	-195.0914916992188	897.6930541992188	29.14710998535156	-123.2781600952148	1041.231201171875	469.3032531738281	97.28042602539062	1094.781982421875	730.1384887695312	112.6324920654297	980.437744140625	46.84888076782227	68.74290466308594	1043.490112304688	342.9949340820312	82.82247161865234	1157.288818359375	28.45405578613281	-4.79926061630249	1079.701293945312	34.42000961303711	-29.29305648803711	1066.111206054688	38.22457122802734	68.41571044921875	905.962158203125	32.07587051391602	20.07135200500488	937.8091430664062	982.318115234375	-0.04757087305188179	1070.704223632812	36.29307174682617	-91.43830108642578	nan	nan	nan	nan	nan	nan	
